<?xml version="1.0" encoding="UTF-8"?>
<svg id="Capa_1" xmlns="http://www.w3.org/2000/svg" version="1.1" viewBox="0 0 1920 1080">
  <!-- Generator: Adobe Illustrator 29.7.1, SVG Export Plug-In . SVG Version: 2.1.1 Build 8)  -->
  <defs>
    <style>
      .st0 {
        fill: #fff;
      }
    </style>
  </defs>
  <path class="st0" d="M315.62,460.82c-3.16-7.11-8.04-13.31-14.14-18.13-10.86-8.58-22.45-16.3-34.68-23.03,7.93,14.1,14.51,28.94,19.68,44.43,10.89,32.61,15.05,66.68,12.35,101.24-1.16,14.82-3.55,29.36-7.15,43.54l-9.81-4.95c3.12-12.75,5.25-25.92,6.31-39.43,4.3-55.05-9.96-107.35-37.49-150.73-1.31-2.07-3.22-3.7-5.47-4.66-5.26-2.27-10.62-4.36-16.07-6.27-2.5-.88-5.21-.91-7.73-.1-10.72,3.46-21.34,7.64-31.81,12.56-42.01,19.75-76.46,49.07-101.98,84.13-4.58,6.29-7.5,13.62-8.63,21.32-2,13.69-2.89,27.58-2.6,41.55,8.25-13.92,17.81-27.04,28.64-39.26,22.8-25.74,50.22-46.37,81.5-61.32,13.42-6.41,27.2-11.61,41.28-15.58l.62,10.97c-12.6,3.68-25.08,8.41-37.3,14.25-49.82,23.81-87.98,62.3-111.79,107.83-1.14,2.17-1.59,4.63-1.31,7.06.67,5.69,1.53,11.38,2.6,17.05.49,2.6,1.82,4.97,3.78,6.74,8.36,7.56,17.29,14.67,26.78,21.27,38.11,26.51,80.73,41.69,123.85,46.25,7.73.82,15.55-.31,22.77-3.18,12.86-5.11,25.33-11.29,37.28-18.52-16.17-.18-32.32-1.91-48.32-5.17-33.69-6.88-65.26-20.31-93.85-39.93-12.26-8.41-23.65-17.76-34.13-27.96l9.2-6.03c9.48,9.08,19.81,17.52,30.98,25.18,45.53,31.25,97.94,45.05,149.28,42.9,2.45-.1,4.81-.94,6.77-2.4,4.59-3.42,9.08-7.02,13.46-10.78,2.01-1.73,3.4-4.06,3.96-6.65,2.36-11.01,4.06-22.31,5.03-33.83,3.9-46.26-4.26-90.76-21.87-130.39M196.16,560.71c-9.05-4.57-19.6-5.14-29.1-1.59l-28.19,10.55,69.41-45.48c8.48-5.56,14.25-14.4,15.92-24.41l4.96-29.69,4.68,82.85c.57,10.12,5.35,19.55,13.17,25.99l23.23,19.14-74.09-37.37Z"/>
  <g>
    <path class="st0" d="M1184.14,522.48c-3.25,0-6.2.72-8.85,2.17-2.51,1.37-4.51,3.26-6.03,5.64-1.21-2.26-2.87-4.11-5.05-5.48-2.45-1.55-5.5-2.33-9.14-2.33-3.31,0-6.3.73-8.96,2.19-2.05,1.13-3.77,2.57-5.17,4.33v-5.3h-9.62v48.76h10.97v-30.03c0-3.04.84-5.51,2.51-7.4,1.67-1.9,3.89-2.84,6.66-2.84s5.12.95,6.77,2.84c1.65,1.9,2.48,4.55,2.48,7.95v29.48h10.84v-30.03c0-2.14.41-3.98,1.22-5.53.81-1.55,1.91-2.73,3.3-3.52,1.39-.8,2.95-1.2,4.69-1.2,2.83,0,5.07.94,6.73,2.82,1.65,1.88,2.48,4.49,2.48,7.83v29.62h10.88v-32.37c0-5.27-1.44-9.52-4.31-12.75-2.87-3.24-7.01-4.85-12.4-4.85Z"/>
    <path class="st0" d="M1248.35,525.64c-3.64-2.2-7.92-3.29-12.82-3.29s-9,1.08-12.64,3.25c-3.64,2.17-6.49,5.18-8.53,9.03-2.05,3.85-3.07,8.34-3.07,13.46s1,9.47,3,13.34c2,3.87,4.82,6.9,8.47,9.1,3.64,2.2,7.9,3.3,12.77,3.3s9.14-1.09,12.78-3.27c3.64-2.18,6.48-5.21,8.51-9.08,2.03-3.87,3.05-8.33,3.05-13.39s-1.01-9.48-3.03-13.34c-2.01-3.87-4.84-6.9-8.49-9.1ZM1245.19,559.28c-2.11,2.89-5.33,4.33-9.67,4.33s-7.35-1.41-9.5-4.22c-2.15-2.82-3.23-6.58-3.23-11.31,0-3.07.45-5.77,1.36-8.11.9-2.33,2.29-4.15,4.18-5.46,1.88-1.31,4.28-1.96,7.2-1.96,4.27,0,7.48,1.41,9.62,4.22,2.14,2.82,3.21,6.59,3.21,11.31s-1.06,8.31-3.16,11.2Z"/>
    <path class="st0" d="M1286.23,510.15h-10.84v13.55h-8.85v8.53h8.85v20.32c0,2.77.03,5.25.09,7.45.06,2.2.65,4.35,1.76,6.46,1.27,2.32,3.12,4.01,5.55,5.08,2.44,1.07,5.2,1.64,8.29,1.71,3.09.08,6.24-.19,9.46-.79v-9.12c-3.04.45-5.75.57-8.13.36-2.38-.21-4.11-1.22-5.19-3.02-.57-.93-.88-2.14-.93-3.61-.04-1.47-.07-3.19-.07-5.15v-19.69h14.31v-8.53h-14.31v-13.55Z"/>
    <rect class="st0" x="1314.14" y="506.32" width="10.88" height="9.98"/>
    <rect class="st0" x="1314.14" y="523.7" width="10.88" height="48.76"/>
    <path class="st0" d="M1375.09,525.64c-3.64-2.2-7.92-3.29-12.83-3.29s-9,1.08-12.64,3.25c-3.64,2.17-6.49,5.18-8.53,9.03-2.05,3.85-3.07,8.34-3.07,13.46s1,9.47,3,13.34c2,3.87,4.82,6.9,8.47,9.1,3.64,2.2,7.9,3.3,12.77,3.3s9.14-1.09,12.78-3.27c3.64-2.18,6.48-5.21,8.51-9.08,2.03-3.87,3.05-8.33,3.05-13.39s-1.01-9.48-3.03-13.34c-2.01-3.87-4.84-6.9-8.49-9.1ZM1371.93,559.28c-2.11,2.89-5.33,4.33-9.67,4.33s-7.35-1.41-9.5-4.22c-2.15-2.82-3.23-6.58-3.23-11.31,0-3.07.45-5.77,1.36-8.11.9-2.33,2.29-4.15,4.18-5.46,1.88-1.31,4.28-1.96,7.2-1.96,4.28,0,7.48,1.41,9.62,4.22,2.14,2.82,3.21,6.59,3.21,11.31s-1.06,8.31-3.16,11.2Z"/>
    <path class="st0" d="M1441.87,534.67c-.66-2.11-1.68-4.09-3.07-5.96-1.39-1.87-3.25-3.4-5.6-4.61-2.35-1.2-5.33-1.81-8.94-1.81-4.57,0-8.43,1-11.56,3-1.68,1.08-3.14,2.36-4.38,3.83v-5.43h-9.71v48.76h11.02v-25.06c0-2.98.33-5.43,1-7.34.66-1.91,1.54-3.42,2.64-4.51,1.1-1.1,2.33-1.87,3.68-2.33,1.35-.45,2.73-.68,4.11-.68,2.59,0,4.64.56,6.16,1.67,1.52,1.11,2.66,2.54,3.43,4.27.77,1.73,1.26,3.53,1.47,5.4.21,1.87.32,3.57.32,5.1v23.48h11.02v-27.23c0-1.17-.1-2.7-.29-4.58-.2-1.88-.63-3.88-1.29-5.98Z"/>
    <path class="st0" d="M1465.03,529.5c2.38-1.55,5.45-2.29,9.21-2.23,3.97.03,7.28.96,9.93,2.78s4.23,4.3,4.74,7.43l5.33-.99c-.27-2.8-1.29-5.26-3.07-7.38-1.77-2.12-4.11-3.78-7-4.97s-6.14-1.78-9.75-1.78-6.8.57-9.55,1.71c-2.76,1.15-4.9,2.73-6.44,4.76-1.53,2.03-2.3,4.39-2.3,7.06,0,2.23.52,4.11,1.56,5.65,1.04,1.53,2.83,2.9,5.37,4.11,2.54,1.2,6.07,2.41,10.59,3.61,4.28,1.17,7.5,2.2,9.66,3.07,2.17.87,3.62,1.83,4.36,2.87.74,1.04,1.11,2.37,1.11,4,0,2.98-1.19,5.33-3.57,7.05-2.38,1.71-5.58,2.57-9.62,2.57s-7.49-.86-10.29-2.57c-2.8-1.72-4.57-4.02-5.33-6.91l-5.33.9c.87,4.24,3.14,7.56,6.8,9.93,3.66,2.38,8.3,3.57,13.93,3.57s10.48-1.29,13.84-3.86,5.03-6.12,5.03-10.63c0-2.5-.54-4.6-1.62-6.3-1.08-1.7-2.94-3.18-5.58-4.45-2.63-1.27-6.3-2.5-10.99-3.7-3.85-.96-6.83-1.87-8.94-2.71-2.11-.84-3.58-1.77-4.4-2.78-.83-1.01-1.24-2.23-1.24-3.68,0-2.53,1.19-4.57,3.57-6.12Z"/>
    <path class="st0" d="M1538.78,525.62c-3.39-2.18-7.5-3.27-12.35-3.27s-8.83,1.07-12.21,3.2c-3.39,2.14-5.98,5.14-7.79,9.01-1.81,3.87-2.71,8.35-2.71,13.43s.89,9.53,2.66,13.41c1.77,3.88,4.35,6.92,7.72,9.12,3.37,2.2,7.48,3.3,12.33,3.3s8.88-1.09,12.28-3.25c3.4-2.17,5.99-5.18,7.77-9.05,1.77-3.87,2.66-8.38,2.66-13.52s-.88-9.47-2.64-13.32c-1.76-3.85-4.33-6.87-7.72-9.05ZM1539.32,562.98c-2.84,3.85-7.14,5.78-12.89,5.78s-9.9-1.89-12.8-5.69c-2.91-3.79-4.36-8.82-4.36-15.08,0-4.03.63-7.59,1.87-10.68,1.25-3.08,3.14-5.51,5.67-7.27,2.53-1.76,5.73-2.64,9.62-2.64,5.72,0,10.01,1.87,12.87,5.6,2.86,3.73,4.29,8.73,4.29,14.99s-1.42,11.14-4.27,14.99Z"/>
    <rect class="st0" x="1562.15" y="506.09" width="5.19" height="66.37"/>
    <path class="st0" d="M1617.87,550.02c0,2.68-.31,5.16-.93,7.43-.62,2.27-1.55,4.24-2.8,5.89-1.25,1.66-2.85,2.94-4.79,3.86-1.94.92-4.23,1.38-6.89,1.38s-4.78-.43-6.66-1.31c-1.88-.87-3.45-2.15-4.7-3.84-1.25-1.68-2.18-3.73-2.8-6.14-.62-2.41-.93-5.15-.93-8.22v-25.38h-5.24v26.69c0,2.53.25,4.95.75,7.27.5,2.32,1.26,4.45,2.28,6.39,1.02,1.94,2.32,3.63,3.88,5.06s3.41,2.53,5.53,3.32c2.12.78,4.52,1.18,7.2,1.18,3.79,0,7.21-.82,10.25-2.46,2.55-1.38,4.65-3.38,6.32-6v7.34h4.74v-48.76h-5.24v26.32Z"/>
    <path class="st0" d="M1648.66,510.15h-5.24v13.55h-10.93v4.74h10.93v27.09c0,2.26.05,4.26.14,6,.09,1.75.54,3.48,1.36,5.19.99,2.11,2.47,3.67,4.44,4.67,1.97,1.01,4.22,1.58,6.75,1.72,2.53.13,5.09-.08,7.67-.66v-4.7c-3.64.57-6.64.64-8.98.21-2.35-.44-4.07-1.69-5.15-3.77-.57-1.11-.88-2.34-.93-3.68-.05-1.34-.07-3.03-.07-5.08v-27h15.13v-4.74h-15.13v-13.55Z"/>
    <rect class="st0" x="1676.2" y="507.22" width="5.19" height="6.64"/>
    <rect class="st0" x="1676.2" y="523.7" width="5.19" height="48.76"/>
    <path class="st0" d="M1729.46,525.62c-3.39-2.18-7.5-3.27-12.35-3.27s-8.83,1.07-12.21,3.2c-3.39,2.14-5.98,5.14-7.79,9.01-1.81,3.87-2.71,8.35-2.71,13.43s.89,9.53,2.66,13.41c1.77,3.88,4.35,6.92,7.72,9.12s7.48,3.3,12.33,3.3,8.88-1.09,12.28-3.25c3.4-2.17,5.99-5.18,7.77-9.05,1.77-3.87,2.66-8.38,2.66-13.52s-.88-9.47-2.64-13.32c-1.76-3.85-4.33-6.87-7.72-9.05ZM1730,562.98c-2.84,3.85-7.14,5.78-12.89,5.78s-9.9-1.89-12.8-5.69c-2.91-3.79-4.36-8.82-4.36-15.08,0-4.03.63-7.59,1.87-10.68,1.25-3.08,3.14-5.51,5.67-7.27,2.53-1.76,5.73-2.64,9.62-2.64,5.72,0,10.01,1.87,12.87,5.6s4.29,8.73,4.29,14.99-1.42,11.14-4.27,14.99Z"/>
    <path class="st0" d="M1789.85,532.12c-1.02-1.94-2.32-3.63-3.88-5.06-1.56-1.43-3.41-2.54-5.53-3.32-2.12-.78-4.52-1.17-7.2-1.17-3.8,0-7.21.82-10.25,2.46-2.55,1.38-4.65,3.38-6.32,6v-7.33h-4.74v48.76h5.24v-26.32c0-2.68.31-5.15.93-7.43.62-2.27,1.55-4.24,2.8-5.89,1.25-1.65,2.84-2.94,4.78-3.86,1.94-.92,4.24-1.38,6.89-1.38s4.78.44,6.66,1.31c1.88.87,3.45,2.15,4.69,3.84,1.25,1.69,2.18,3.73,2.8,6.14.62,2.41.93,5.15.93,8.22v25.38h5.24v-26.69c0-2.53-.25-4.95-.75-7.27-.5-2.32-1.26-4.45-2.28-6.39Z"/>
    <path class="st0" d="M1836.47,548.49c-2.63-1.27-6.3-2.5-10.99-3.7-3.85-.96-6.83-1.87-8.94-2.71-2.11-.84-3.58-1.77-4.4-2.78-.83-1.01-1.24-2.23-1.24-3.68,0-2.53,1.19-4.57,3.57-6.12,2.38-1.55,5.45-2.29,9.21-2.23,3.97.03,7.28.96,9.93,2.78,2.65,1.82,4.23,4.3,4.74,7.43l5.33-.99c-.27-2.8-1.29-5.26-3.07-7.38-1.77-2.12-4.11-3.78-7-4.97-2.89-1.19-6.14-1.78-9.75-1.78s-6.8.57-9.55,1.71c-2.76,1.15-4.9,2.73-6.44,4.76-1.53,2.03-2.3,4.39-2.3,7.06,0,2.23.52,4.11,1.56,5.65s2.83,2.9,5.37,4.11c2.54,1.2,6.07,2.41,10.59,3.61,4.27,1.17,7.5,2.2,9.66,3.07,2.17.87,3.62,1.83,4.36,2.87.74,1.04,1.11,2.37,1.11,4,0,2.98-1.19,5.33-3.57,7.05-2.38,1.71-5.58,2.57-9.62,2.57s-7.49-.86-10.29-2.57c-2.8-1.72-4.57-4.02-5.33-6.91l-5.33.9c.87,4.24,3.14,7.56,6.8,9.93,3.66,2.38,8.3,3.57,13.93,3.57s10.48-1.29,13.84-3.86,5.03-6.12,5.03-10.63c0-2.5-.54-4.6-1.62-6.3-1.08-1.7-2.94-3.18-5.58-4.45Z"/>
    <path class="st0" d="M934.47,488.45c-5.97-9.07-14.61-16.17-25.69-21.11-11.09-4.94-24.31-7.44-39.3-7.44h-83.03v160.11h31.9c6.35,0,11.52-5.17,11.52-11.52v-27.78h36.02c15.68,0,29.56-2.59,41.23-7.69,11.67-5.1,20.75-12.45,26.97-21.84,3.04-4.59,9.33-18.44,9.36-31.96.03-13.93-6.64-27.21-8.98-30.77h0ZM899.1,525.3c-1.27,4.71-3.85,8.74-7.65,11.97-5.71,4.86-13.45,7.32-22.99,7.32h-38.59v-48.33h38.59c9.54,0,17.28,2.22,22.99,6.59,3.67,2.81,6.2,6.32,7.51,10.43,1.2,3.76,1.25,7.91.14,12.02Z"/>
    <path class="st0" d="M738.67,585.34l33.14-51.98h-36.38c-3.92,0-7.53,1.96-9.67,5.26l-15.09,23.3-28.77-26.6c-9.72-8.9-16.41-15.51-19.91-19.64-3.49-4.13-5.27-8.52-5.27-13.06s1.6-8.52,4.75-11.35c3.16-2.83,7.17-4.27,11.94-4.27s9.09,1.64,12.33,4.88c.96.96,1.82,2.07,2.55,3.29,2.02,3.39,5.85,5.49,9.99,5.49h31.83l-.09-.56c-2.13-13.52-7.79-24.53-16.8-32.74-10.23-9.31-24.06-14.03-41.1-14.03-11.59,0-21.92,2.18-30.7,6.47-8.78,4.29-15.69,10.16-20.55,17.45-4.86,7.29-7.32,15.5-7.32,24.4,0,9.72,3.54,19.49,10.53,29.04-9.04,4.7-16.3,10.78-21.58,18.06-5.28,7.28-7.96,15.91-7.96,25.62,0,10.21,2.77,19.36,8.22,27.21,5.45,7.85,13.32,14.05,23.38,18.43,10.06,4.37,21.81,6.59,34.94,6.59,19.61,0,36.63-4.6,50.61-13.67h0s4.74,4.19,4.74,4.19c2.11,1.87,4.82,2.89,7.63,2.89h49.47l-35.89-33.2,1.03-1.46ZM662.12,593.4c-7.67,0-14.29-2.01-19.65-5.98-5.37-3.97-8.09-8.85-8.09-14.52,0-3.72,1.12-7.17,3.34-10.25,2.21-3.08,5.24-5.7,8.99-7.81l37.25,33.43c-7.16,3.4-14.5,5.12-21.83,5.12Z"/>
    <path class="st0" d="M572.28,550.49c-4.86-6.4-12.53-10.84-22.17-12.86,16.63-8.02,21.24-17.32,22.1-33.56,0-13.6-5.36-24.48-15.93-32.34-10.57-7.85-25.44-11.84-44.18-11.84h-84.53c-6.35,0-11.52,5.17-11.52,11.52v148.59h101.18c19.26,0,34.69-4.23,45.85-12.57,11.16-8.34,16.83-19.63,16.83-33.56,0-1.85-.12-3.73-.35-5.57-.82-6.55-3.27-12.54-7.29-17.83ZM459.47,493.58h45.95c8.35,0,14.7,1.4,18.88,4.15,2.16,1.43,3.79,3.22,4.83,5.33,1.58,3.2,1.6,7.16.06,10.59-1.08,2.4-2.81,4.48-5.14,6.18-4.35,3.16-10.61,4.76-18.62,4.76h-45.95v-31ZM536.11,574.57c-1.04,2.51-2.81,4.7-5.25,6.51-4.26,3.16-10.74,4.76-19.27,4.76h-52.12v-29.78h52.89c8.01,0,14.23,1.31,18.5,3.9,2.38,1.45,4.11,3.31,5.16,5.54,1.3,2.77,1.34,6.08.1,9.07Z"/>
  </g>
</svg>