<?xml version="1.0" encoding="UTF-8"?>
<svg id="Capa_1" xmlns="http://www.w3.org/2000/svg" version="1.1" viewBox="0 0 1920 1080">
  <!-- Generator: Adobe Illustrator 29.7.1, SVG Export Plug-In . SVG Version: 2.1.1 Build 8)  -->
  <g>
    <path d="M718.56,329.68c-3.92-8.83-10-16.54-17.58-22.53-13.49-10.66-27.9-20.25-43.1-28.62,9.85,17.52,18.03,35.97,24.46,55.22,13.53,40.53,18.7,82.86,15.35,125.82-1.44,18.42-4.41,36.49-8.89,54.11l-12.19-6.15c3.88-15.85,6.53-32.21,7.84-49,5.34-68.42-12.38-133.41-46.59-187.32-1.63-2.57-4-4.59-6.8-5.8-6.54-2.82-13.2-5.42-19.97-7.8-3.1-1.09-6.48-1.13-9.61-.12-13.32,4.3-26.52,9.49-39.53,15.61-52.21,24.55-95.03,60.98-126.74,104.56-5.69,7.81-9.33,16.93-10.73,26.49-2.49,17.01-3.59,34.28-3.23,51.64,10.25-17.3,22.13-33.6,35.59-48.79,28.33-31.99,62.41-57.63,101.29-76.2,16.68-7.97,33.81-14.42,51.31-19.36l.77,13.63c-15.66,4.57-31.16,10.45-46.35,17.71-61.92,29.59-109.35,77.42-138.93,134.01-1.41,2.69-1.98,5.76-1.62,8.78.83,7.07,1.91,14.14,3.23,21.19.61,3.23,2.26,6.17,4.7,8.38,10.39,9.39,21.49,18.23,33.29,26.43,47.37,32.94,100.32,51.81,153.92,57.48,9.61,1.02,19.32-.39,28.3-3.95,15.98-6.35,31.49-14.03,46.33-23.02-20.1-.23-40.16-2.37-60.05-6.43-41.87-8.55-81.11-25.24-116.64-49.62-15.24-10.46-29.4-22.07-42.42-34.75l11.43-7.49c11.79,11.28,24.62,21.77,38.5,31.29,56.58,38.83,121.72,55.98,185.52,53.31,3.04-.13,5.97-1.17,8.41-2.98,5.71-4.25,11.29-8.72,16.73-13.39,2.5-2.14,4.23-5.05,4.92-8.27,2.94-13.69,5.04-27.72,6.25-42.04,4.85-57.49-5.3-112.79-27.18-162.04M570.1,453.81c-11.25-5.67-24.36-6.39-36.16-1.97l-35.04,13.11,86.26-56.52c10.54-6.91,17.72-17.9,19.79-30.33l6.16-36.9,5.82,102.96c.71,12.58,6.65,24.29,16.37,32.3l28.87,23.79-92.08-46.44Z"/>
    <g>
      <path d="M1487.66,364.01h0c-7.42-11.27-18.16-20.09-31.93-26.24-13.78-6.14-30.21-9.25-48.84-9.25h-103.19v198.98h39.64c7.89,0,14.31-6.42,14.31-14.31v-34.53h44.77c19.49,0,36.73-3.21,51.24-9.55,14.51-6.34,25.79-15.47,33.52-27.15,3.78-5.71,11.6-22.92,11.64-39.72.04-17.31-8.25-33.82-11.16-38.24ZM1443.7,409.8c-1.58,5.85-4.78,10.86-9.51,14.88-7.1,6.04-16.72,9.1-28.57,9.1h-47.96v-60.06h47.96c11.86,0,21.47,2.75,28.57,8.19,4.56,3.49,7.7,7.85,9.34,12.96,1.5,4.67,1.56,9.84.17,14.94Z"/>
      <path d="M1243.04,486.25l1.28-1.82,41.18-64.6h-45.21c-4.87,0-9.36,2.44-12.01,6.53l-18.75,28.95-35.76-33.06c-12.07-11.06-20.4-19.28-24.74-24.41-4.34-5.13-6.54-10.59-6.54-16.23s1.99-10.58,5.91-14.1c3.92-3.52,8.92-5.31,14.84-5.31s11.3,2.04,15.32,6.07c1.2,1.2,2.26,2.57,3.17,4.09,2.51,4.21,7.27,6.82,12.42,6.82h39.56l-.11-.7c-2.65-16.8-9.68-30.49-20.88-40.69-12.71-11.57-29.9-17.44-51.08-17.44-14.4,0-27.24,2.7-38.15,8.04-10.91,5.33-19.5,12.63-25.54,21.69-6.04,9.06-9.1,19.26-9.1,30.33,0,12.08,4.4,24.22,13.09,36.09-11.23,5.84-20.26,13.39-26.81,22.44-6.57,9.05-9.9,19.77-9.9,31.84,0,12.68,3.44,24.06,10.21,33.82,6.78,9.76,16.55,17.46,29.05,22.9,12.5,5.43,27.11,8.19,43.42,8.19,24.36,0,45.52-5.71,62.89-16.98h0s5.89,5.21,5.89,5.21c2.62,2.32,5.99,3.6,9.49,3.6h61.48l-44.61-41.26ZM1176.32,488.07c-8.9,4.23-18.03,6.37-27.14,6.37s-17.75-2.5-24.42-7.43c-6.67-4.93-10.06-11-10.06-18.05,0-4.63,1.4-8.91,4.15-12.74,2.75-3.82,6.51-7.09,11.17-9.7l46.29,41.55Z"/>
      <path d="M1046.6,463.27c-1.02-8.14-4.07-15.59-9.06-22.15-6.05-7.95-15.57-13.47-27.56-15.98,20.67-9.97,26.4-21.52,27.47-41.71,0-16.9-6.66-30.42-19.79-40.19-13.14-9.76-31.61-14.71-54.91-14.71h-105.05c-7.89,0-14.31,6.42-14.31,14.31v184.67h125.75c23.94,0,43.11-5.26,56.99-15.62,13.87-10.36,20.91-24.4,20.91-41.7,0-2.3-.15-4.63-.43-6.92ZM983.99,395.32c-1.34,2.99-3.49,5.57-6.39,7.68-5.4,3.92-13.19,5.91-23.15,5.91h-57.11v-38.53h57.11c10.37,0,18.27,1.73,23.47,5.16,2.69,1.78,4.71,4,6,6.63,1.96,3.98,1.99,8.9.07,13.16ZM992.46,459.77c1.62,3.45,1.66,7.56.12,11.27-1.3,3.12-3.49,5.84-6.53,8.09-5.3,3.92-13.35,5.91-23.94,5.91h-64.77v-37.01h65.73c9.95,0,17.68,1.63,22.99,4.85,2.95,1.8,5.11,4.11,6.41,6.89Z"/>
    </g>
  </g>
  <g>
    <path d="M583,759.43c-4.04,0-7.7.9-11,2.69-3.1,1.69-5.59,4.02-7.48,6.95-1.5-2.79-3.59-5.05-6.3-6.76-3.05-1.93-6.84-2.89-11.36-2.89-4.12,0-7.83.91-11.14,2.72-2.55,1.4-4.69,3.19-6.43,5.37v-6.58h-11.95v60.6h13.64v-37.32c0-3.78,1.04-6.85,3.12-9.2,2.07-2.36,4.83-3.54,8.28-3.54s6.36,1.18,8.42,3.54,3.09,5.65,3.09,9.88v36.64h13.47v-37.32c0-2.65.5-4.95,1.51-6.87,1.01-1.93,2.38-3.39,4.1-4.38,1.72-.99,3.67-1.49,5.83-1.49,3.52,0,6.31,1.17,8.36,3.51,2.06,2.34,3.09,5.58,3.09,9.73v36.81h13.52v-40.23c0-6.55-1.79-11.83-5.36-15.85-3.57-4.02-8.71-6.03-15.4-6.03Z"/>
    <path d="M662.8,763.35c-4.53-2.73-9.84-4.09-15.94-4.09s-11.18,1.34-15.71,4.04c-4.53,2.69-8.06,6.44-10.61,11.22-2.54,4.79-3.82,10.36-3.82,16.72s1.24,11.77,3.73,16.58c2.49,4.81,6,8.58,10.52,11.31,4.52,2.73,9.82,4.1,15.88,4.1s11.35-1.36,15.88-4.07c4.53-2.71,8.05-6.47,10.58-11.28,2.52-4.81,3.79-10.35,3.79-16.64s-1.25-11.78-3.76-16.58c-2.5-4.81-6.02-8.58-10.55-11.31ZM658.87,805.16c-2.62,3.59-6.62,5.39-12.01,5.39s-9.14-1.75-11.81-5.25c-2.68-3.5-4.01-8.18-4.01-14.06,0-3.82.56-7.17,1.68-10.07,1.12-2.9,2.85-5.16,5.19-6.79,2.34-1.63,5.32-2.44,8.95-2.44,5.31,0,9.3,1.75,11.95,5.25,2.66,3.5,3.98,8.18,3.98,14.06s-1.31,10.32-3.93,13.92Z"/>
    <path d="M709.88,744.11h-13.47v16.83h-11v10.6h11v25.25c0,3.44.04,6.53.11,9.26s.81,5.41,2.19,8.03c1.57,2.88,3.87,4.98,6.9,6.31,3.03,1.33,6.46,2.04,10.3,2.13,3.84.1,7.75-.23,11.76-.98v-11.34c-3.78.56-7.15.71-10.1.45-2.95-.26-5.11-1.51-6.45-3.76-.71-1.16-1.09-2.66-1.15-4.49-.05-1.83-.08-3.96-.08-6.4v-24.47h17.79v-10.6h-17.79v-16.83Z"/>
    <rect x="744.56" y="760.94" width="13.52" height="60.6"/>
    <rect x="744.56" y="739.34" width="13.52" height="12.4"/>
    <path d="M820.31,763.35c-4.53-2.73-9.84-4.09-15.94-4.09s-11.18,1.34-15.71,4.04c-4.53,2.69-8.06,6.44-10.61,11.22-2.54,4.79-3.82,10.36-3.82,16.72s1.24,11.77,3.73,16.58c2.49,4.81,6,8.58,10.52,11.31,4.52,2.73,9.82,4.1,15.88,4.1s11.35-1.36,15.88-4.07c4.53-2.71,8.05-6.47,10.58-11.28,2.52-4.81,3.79-10.35,3.79-16.64s-1.25-11.78-3.76-16.58c-2.5-4.81-6.02-8.58-10.55-11.31ZM816.38,805.16c-2.62,3.59-6.62,5.39-12.01,5.39s-9.14-1.75-11.81-5.25c-2.68-3.5-4.01-8.18-4.01-14.06,0-3.82.56-7.17,1.68-10.07,1.12-2.9,2.85-5.16,5.19-6.79,2.34-1.63,5.32-2.44,8.95-2.44,5.31,0,9.3,1.75,11.95,5.25,2.66,3.5,3.98,8.18,3.98,14.06s-1.31,10.32-3.93,13.92Z"/>
    <path d="M903.3,774.58c-.82-2.62-2.09-5.09-3.82-7.41-1.72-2.32-4.04-4.23-6.96-5.72-2.92-1.5-6.62-2.24-11.11-2.24-5.69,0-10.47,1.25-14.36,3.73-2.09,1.34-3.9,2.93-5.45,4.76v-6.75h-12.07v60.6h13.69v-31.14c0-3.7.41-6.74,1.24-9.12.82-2.38,1.92-4.25,3.28-5.61,1.37-1.37,2.89-2.33,4.57-2.89,1.68-.56,3.39-.84,5.11-.84,3.22,0,5.77.69,7.66,2.08,1.89,1.38,3.31,3.15,4.26,5.3.96,2.15,1.56,4.39,1.82,6.71.26,2.32.39,4.43.39,6.34v29.18h13.69v-33.84c0-1.46-.12-3.36-.36-5.7s-.78-4.82-1.6-7.44Z"/>
    <path d="M932.08,768.15c2.95-1.93,6.77-2.85,11.45-2.78,4.94.04,9.05,1.19,12.34,3.45,3.29,2.26,5.25,5.34,5.89,9.23l6.62-1.24c-.34-3.48-1.61-6.54-3.82-9.18-2.21-2.64-5.11-4.69-8.7-6.17-3.59-1.48-7.63-2.22-12.12-2.22s-8.45.71-11.87,2.13c-3.43,1.42-6.09,3.4-8,5.92-1.91,2.52-2.86,5.45-2.86,8.78,0,2.77.65,5.11,1.94,7.02,1.29,1.91,3.52,3.61,6.68,5.11,3.16,1.5,7.55,2.99,13.16,4.49,5.31,1.46,9.32,2.73,12.01,3.82,2.69,1.09,4.5,2.27,5.42,3.56.92,1.29,1.37,2.95,1.37,4.97,0,3.7-1.48,6.62-4.43,8.76-2.95,2.13-6.94,3.19-11.95,3.19s-9.31-1.06-12.79-3.19c-3.48-2.14-5.69-5-6.62-8.59l-6.62,1.12c1.08,5.27,3.9,9.39,8.45,12.34,4.54,2.95,10.32,4.44,17.31,4.44s13.03-1.6,17.2-4.8c4.17-3.2,6.26-7.6,6.26-13.21,0-3.11-.67-5.71-2.02-7.83-1.34-2.11-3.66-3.96-6.93-5.53-3.27-1.57-7.83-3.11-13.66-4.6-4.79-1.2-8.49-2.32-11.11-3.37-2.62-1.05-4.44-2.2-5.47-3.45-1.03-1.25-1.54-2.78-1.54-4.57,0-3.14,1.48-5.68,4.43-7.61Z"/>
    <path d="M1023.74,763.33c-4.21-2.71-9.32-4.07-15.35-4.07s-10.97,1.33-15.18,3.98c-4.21,2.66-7.44,6.39-9.68,11.19-2.25,4.81-3.37,10.37-3.37,16.69s1.1,11.84,3.31,16.67c2.21,4.82,5.4,8.6,9.6,11.34s9.3,4.1,15.32,4.1,11.04-1.35,15.26-4.04c4.23-2.69,7.44-6.44,9.65-11.25,2.21-4.81,3.31-10.41,3.31-16.81s-1.1-11.76-3.29-16.55c-2.18-4.79-5.38-8.54-9.6-11.25ZM1024.42,809.76c-3.53,4.79-8.88,7.18-16.02,7.18s-12.3-2.35-15.91-7.07c-3.61-4.71-5.42-10.96-5.42-18.74,0-5.01.78-9.44,2.33-13.27s3.9-6.85,7.04-9.03c3.14-2.19,7.13-3.28,11.95-3.28,7.11,0,12.44,2.32,15.99,6.96,3.55,4.64,5.33,10.85,5.33,18.63s-1.77,13.84-5.3,18.63Z"/>
    <rect x="1052.78" y="739.06" width="6.45" height="82.49"/>
    <path d="M1122.03,793.66c0,3.33-.38,6.41-1.15,9.23-.77,2.82-1.93,5.27-3.48,7.32-1.56,2.06-3.54,3.66-5.95,4.8-2.41,1.14-5.26,1.71-8.56,1.71s-5.94-.54-8.28-1.62c-2.34-1.08-4.29-2.68-5.84-4.77-1.55-2.09-2.71-4.64-3.48-7.63-.77-2.99-1.15-6.4-1.15-10.21v-31.54h-6.51v33.16c0,3.14.31,6.15.93,9.03.62,2.88,1.56,5.53,2.83,7.94,1.27,2.41,2.88,4.51,4.82,6.29,1.94,1.78,4.24,3.15,6.88,4.12,2.64.97,5.62,1.46,8.95,1.46,4.71,0,8.96-1.02,12.74-3.06,3.17-1.71,5.78-4.2,7.86-7.46v9.12h5.89v-60.6h-6.51v32.72Z"/>
    <path d="M1160.3,744.11h-6.51v16.83h-13.58v5.89h13.58v33.67c0,2.81.06,5.29.17,7.46.11,2.17.67,4.32,1.68,6.45,1.23,2.62,3.07,4.56,5.52,5.81,2.45,1.25,5.25,1.97,8.39,2.14,3.14.17,6.32-.1,9.54-.82v-5.84c-4.53.71-8.25.8-11.16.26-2.92-.55-5.05-2.11-6.4-4.69-.71-1.38-1.1-2.91-1.15-4.57-.06-1.66-.09-3.77-.09-6.31v-33.56h18.8v-5.89h-18.8v-16.83Z"/>
    <rect x="1194.53" y="740.46" width="6.45" height="8.25"/>
    <rect x="1194.53" y="760.94" width="6.45" height="60.6"/>
    <path d="M1260.71,763.33c-4.21-2.71-9.32-4.07-15.35-4.07s-10.97,1.33-15.18,3.98c-4.21,2.66-7.44,6.39-9.68,11.19-2.25,4.81-3.37,10.37-3.37,16.69s1.1,11.84,3.31,16.67c2.21,4.82,5.4,8.6,9.6,11.34,4.19,2.73,9.3,4.1,15.32,4.1s11.04-1.35,15.26-4.04,7.44-6.44,9.65-11.25c2.21-4.81,3.31-10.41,3.31-16.81s-1.1-11.76-3.29-16.55c-2.18-4.79-5.38-8.54-9.6-11.25ZM1261.39,809.76c-3.53,4.79-8.88,7.18-16.02,7.18s-12.3-2.35-15.91-7.07c-3.61-4.71-5.42-10.96-5.42-18.74,0-5.01.78-9.44,2.33-13.27,1.55-3.83,3.9-6.85,7.04-9.03,3.14-2.19,7.13-3.28,11.95-3.28,7.11,0,12.44,2.32,15.99,6.96,3.55,4.64,5.33,10.85,5.33,18.63s-1.77,13.84-5.3,18.63Z"/>
    <path d="M1335.76,771.41c-1.27-2.41-2.88-4.51-4.82-6.29s-4.24-3.15-6.87-4.13c-2.64-.97-5.62-1.46-8.95-1.46-4.72,0-8.96,1.02-12.74,3.06-3.17,1.71-5.78,4.2-7.85,7.46v-9.12h-5.89v60.6h6.51v-32.72c0-3.33.38-6.41,1.15-9.23.77-2.82,1.92-5.27,3.48-7.32,1.55-2.06,3.53-3.66,5.95-4.8,2.41-1.14,5.27-1.71,8.56-1.71s5.94.54,8.28,1.63c2.33,1.09,4.28,2.68,5.83,4.77,1.55,2.1,2.71,4.64,3.48,7.63.77,2.99,1.15,6.4,1.15,10.21v31.54h6.51v-33.16c0-3.14-.31-6.15-.93-9.03-.62-2.88-1.56-5.53-2.83-7.94Z"/>
    <path d="M1393.7,791.75c-3.27-1.57-7.83-3.11-13.66-4.6-4.79-1.2-8.49-2.32-11.11-3.37-2.62-1.05-4.44-2.2-5.47-3.45-1.03-1.25-1.54-2.78-1.54-4.57,0-3.14,1.48-5.68,4.43-7.61,2.95-1.93,6.77-2.85,11.45-2.78,4.94.04,9.05,1.19,12.34,3.45,3.29,2.26,5.25,5.34,5.89,9.23l6.62-1.24c-.34-3.48-1.61-6.54-3.82-9.18-2.21-2.64-5.11-4.69-8.7-6.17s-7.63-2.22-12.12-2.22-8.45.71-11.87,2.13c-3.43,1.42-6.09,3.4-8,5.92-1.91,2.52-2.86,5.45-2.86,8.78,0,2.77.65,5.11,1.94,7.02,1.29,1.91,3.52,3.61,6.68,5.11,3.16,1.5,7.55,2.99,13.16,4.49,5.31,1.46,9.32,2.73,12.01,3.82,2.69,1.09,4.5,2.27,5.42,3.56.92,1.29,1.37,2.95,1.37,4.97,0,3.7-1.48,6.62-4.43,8.76-2.95,2.13-6.94,3.19-11.95,3.19s-9.31-1.06-12.79-3.19c-3.48-2.14-5.69-5-6.62-8.59l-6.62,1.12c1.08,5.27,3.9,9.39,8.45,12.34,4.54,2.95,10.32,4.44,17.31,4.44s13.03-1.6,17.2-4.8c4.17-3.2,6.26-7.6,6.26-13.21,0-3.11-.67-5.71-2.02-7.83-1.34-2.11-3.66-3.96-6.93-5.53Z"/>
  </g>
</svg>